PathFileType	4	(X/Y/Z)	c:/Users/goper/Files/vsCode/490R/osim_files/C06/C06_SSWS_03.trc
DataRate	CameraRate	NumFrames	NumMarkers	Units                	OrigDataRate	OrigDataStartFrame	OrigNumFrames
250.00	250.00	4	36	mm	250.0	851	2268
                Frame#	Time	LPSIS			LASIS			LTH1			LTH2			LTH3			LTH4			LLFE			LMFE			LSH1			LSH2			LSH3			LSH4			LLMAL			LMMAL			LCAL			LMTP5			LTOE			LMTP1			RPSIS			RASIS			RTH1			RTH2			RTH3			RTH4			RLFE			RMFE			RSH1			RSH2			RSH3			RSH4			RLMAL			RMMAL			RCAL			RMTP1			RTOE			RMTP5		
		X1	Y1	Z1	X2	Y2	Z2	X3	Y3	Z3	X4	Y4	Z4	X5	Y5	Z5	X6	Y6	Z6	X7	Y7	Z7	X8	Y8	Z8	X9	Y9	Z9	X10	Y10	Z10	X11	Y11	Z11	X12	Y12	Z12	X13	Y13	Z13	X14	Y14	Z14	X15	Y15	Z15	X16	Y16	Z16	X17	Y17	Z17	X18	Y18	Z18	X19	Y19	Z19	X20	Y20	Z20	X21	Y21	Z21	X22	Y22	Z22	X23	Y23	Z23	X24	Y24	Z24	X25	Y25	Z25	X26	Y26	Z26	X27	Y27	Z27	X28	Y28	Z28	X29	Y29	Z29	X30	Y30	Z30	X31	Y31	Z31	X32	Y32	Z32	X33	Y33	Z33	X34	Y34	Z34	X35	Y35	Z35	X36	Y36	Z36

851	3.40000	623.26025	1001.51331	200.82521	443.06192	984.57910	281.67297	447.57361	778.82715	360.38907	413.77942	724.94208	357.57648	381.86188	811.01074	336.62753	357.91141	753.75519	337.12006	300.10941	504.24704	303.58997	302.53030	487.84851	187.05342	357.03629	387.36267	320.07404	346.62070	344.70834	316.65613	293.84662	397.36377	319.79166	292.13214	351.86145	314.15320	314.80014	106.92809	269.20178	301.18777	133.79602	194.45270	371.64200	84.73410	213.64966	207.47765	47.59161	304.91327	148.97731	76.61695	248.05901	170.53761	60.84872	198.17592	629.28076	1003.11548	132.21059	451.70905	978.29694	45.35720	563.05377	783.67535	-26.13754	559.47778	721.18268	-17.75392	489.74213	784.41742	-15.31544	498.68045	722.37231	-9.68441	598.71960	459.93741	43.59782	573.98077	473.90930	146.73445	668.10803	393.82565	32.11131	673.97260	345.73706	33.86766	609.69122	377.72229	36.02823	624.26117	332.40619	34.80662	693.17584	96.32642	91.61422	675.20654	122.32617	166.50208	764.28619	72.72626	139.06546	558.14374	37.13628	173.56920	537.67084	55.25710	126.31693	587.27222	34.51988	60.36101
852	3.40400	618.13660	1000.21356	200.92885	437.96014	983.55743	281.62482	442.01810	777.74438	360.32254	408.78848	724.31299	357.45560	376.62796	809.95166	336.78534	352.40506	752.74890	337.10934	293.98721	503.46838	303.21005	294.85812	487.05963	186.08145	348.65775	385.73471	319.87262	336.76083	343.09143	315.87750	285.37158	396.99988	319.31821	282.55359	351.58228	313.76773	298.61978	105.94597	268.58597	285.73541	133.30595	192.86642	355.04767	82.41811	213.24673	189.85448	49.37876	304.10596	132.17844	80.01774	247.06755	153.57039	63.74625	197.32748	624.30621	1002.05792	132.39609	446.87933	977.36432	45.22583	558.89301	783.29333	-26.25801	555.75818	720.77203	-17.83339	483.46600	781.36603	-13.43248	493.31641	721.03485	-9.43912	597.17175	459.82883	43.54532	572.37494	473.71472	146.70218	666.86011	394.00931	32.17926	673.36713	346.28583	33.78365	608.06696	377.25806	36.33621	623.36987	332.13171	33.99297	692.99756	96.60583	91.73940	675.02576	122.35361	166.36253	764.23694	72.83864	139.23015	557.87781	37.24937	172.87762	537.58417	55.17852	126.33031	587.26611	34.57454	60.46109
853	3.40800	613.00330	998.86835	201.03273	432.81268	982.48914	281.62570	436.70074	776.72723	360.26752	403.37793	723.24451	357.41418	371.17404	808.80548	336.69174	347.09378	751.57135	336.90643	288.01239	502.63641	302.89688	288.91867	486.07712	185.99115	340.06699	383.98059	319.29239	327.29089	341.75815	315.29175	276.93237	396.66788	318.90170	274.00745	352.15979	314.42966	282.95474	105.44445	268.35840	271.13736	133.57619	192.24451	338.63803	80.24446	212.89288	172.28818	51.48422	303.15573	115.65236	83.78146	246.00262	136.70477	66.94456	196.22449	619.29041	1000.91656	132.54974	441.97632	976.41339	45.09823	554.77045	782.92749	-26.38008	552.07770	720.42889	-17.94500	479.46561	780.50201	-13.72343	489.67038	720.20776	-9.66356	595.53125	459.71735	43.54666	570.73474	473.47791	146.70638	665.65991	394.30603	32.27898	671.99335	346.35178	34.05812	606.77606	377.29330	36.26487	622.06250	333.55527	37.56796	692.79578	96.85294	91.92349	674.60571	122.66772	166.75566	764.19946	73.01743	139.38751	557.98865	37.08643	173.34959	537.49597	55.13514	126.34669	587.23401	34.60980	60.50100
854	3.41200	607.90912	997.52252	201.19038	427.63904	981.47095	281.61066	430.65137	775.11115	360.20898	397.48822	721.67554	357.38205	365.80643	807.53333	336.39853	341.94955	752.35461	336.94687	282.03122	501.86353	302.51868	282.79922	485.11771	185.71561	331.49268	382.20828	318.74802	317.75946	340.22507	314.70987	268.64615	396.21411	318.50659	264.75320	351.85754	313.88129	267.28421	104.94849	267.82974	256.76715	133.95908	191.65398	322.39084	78.22311	212.48906	155.08987	53.93467	302.21585	99.50295	87.74693	244.94221	120.21092	70.39912	195.13382	614.31372	999.78992	132.82387	437.05957	975.41785	44.98632	550.62085	782.52478	-26.47287	548.40540	720.09192	-18.05832	475.22113	779.63007	-13.85450	486.19327	719.49255	-9.85019	593.85345	459.61813	43.53233	568.91821	473.21982	146.65002	664.43982	394.58063	32.36422	670.94061	346.60422	34.15469	605.70294	377.37277	36.14436	621.02570	333.48233	37.57915	692.92108	97.33379	92.09946	674.20190	122.92788	166.93275	764.10516	73.17459	139.51945	557.96918	37.07949	173.38779	537.41437	55.09462	126.35339	587.21606	34.66410	60.58010
